PathFileType	4	(X/Y/Z)	subject01_static.trc
DataRate	CameraRate	NumFrames	NumMarkers	Units	OrigDataRate	OrigDataStartFrame	OrigNumFrames
60.00	60.00	       4	49	mm	60.00	263	       300
Frame#	Time	R.ASIS			L.ASIS			V.Sacral			R.Thigh.Upper			R.Thigh.Front			R.Thigh.Rear			L.Thigh.Upper			L.Thigh.Front			L.Thigh.Rear			R.Knee.Lat			R.Knee.Med			L.Knee.Lat			L.Knee.Med			R.Shank.Upper			R.Shank.Front			R.Shank.Rear			L.Shank.Upper			L.Shank.Front			L.Shank.Rear			R.Ankle.Lat			R.Ankle.Med			L.Ankle.Lat			L.Ankle.Med			R.Heel			R.Midfoot.Sup			R.Midfoot.Lat			R.Toe.Tip			L.Heel			L.Midfoot.Sup			L.Midfoot.Lat			L.Toe.Tip			Sternum			R.Acromium			L.Acromium			R.Bicep			L.Bicep			R.Elbow			L.Elbow			R.Wrist.Med			R.Wrist.Lat			L.Wrist.Med			L.Wrist.Lat			R.Toe.Lat			R.Toe.Med			L.Toe.Lat			L.Toe.Med			R.Temple			L.Temple			Top.Head			
		X1	Y1	Z1	X2	Y2	Z2	X3	Y3	Z3	X4	Y4	Z4	X5	Y5	Z5	X6	Y6	Z6	X7	Y7	Z7	X8	Y8	Z8	X9	Y9	Z9	X10	Y10	Z10	X11	Y11	Z11	X12	Y12	Z12	X13	Y13	Z13	X14	Y14	Z14	X15	Y15	Z15	X16	Y16	Z16	X17	Y17	Z17	X18	Y18	Z18	X19	Y19	Z19	X20	Y20	Z20	X21	Y21	Z21	X22	Y22	Z22	X23	Y23	Z23	X24	Y24	Z24	X25	Y25	Z25	X26	Y26	Z26	X27	Y27	Z27	X28	Y28	Z28	X29	Y29	Z29	X30	Y30	Z30	X31	Y31	Z31	X32	Y32	Z32	X33	Y33	Z33	X34	Y34	Z34	X35	Y35	Z35	X36	Y36	Z36	X37	Y37	Z37	X38	Y38	Z38	X39	Y39	Z39	X40	Y40	Z40	X41	Y41	Z41	X42	Y42	Z42	X43	Y43	Z43	X44	Y44	Z44	X45	Y45	Z45	X46	Y46	Z46	X47	Y47	Z47	X48	Y48	Z48	X49	Y49	Z49	

263	4.367000	602.055480	1073.542480	157.631500	603.872560	1061.678340	-104.098320	404.915070	1079.302980	36.589890	539.568600	756.620910	224.334810	591.105830	682.381840	134.768690	519.933720	637.223020	226.589480	513.984620	767.956420	-167.984360	602.145810	719.285520	-112.192210	503.415770	658.898800	-160.655500	474.212100	553.792600	216.642230	468.006160	524.958070	97.995220	474.952730	528.840640	-150.523390	496.009800	519.226680	-37.005180	439.459080	469.002560	236.032360	512.885560	424.130430	184.013690	451.595310	383.457670	253.347520	467.284730	450.407410	-170.774630	516.095150	393.485260	-128.129910	444.564480	409.073270	-181.040590	437.425140	98.062000	255.938540	443.828310	103.546660	165.087860	442.873470	93.576880	-172.246830	464.982790	109.048200	-81.752730	366.637330	70.633740	210.276320	507.343630	80.443960	164.962330	509.360350	63.712720	272.903660	657.167240	50.652320	195.335860	371.467130	75.119240	-115.613110	544.812990	77.038730	-94.775080	523.182920	65.899580	-191.958480	654.543150	48.678780	-127.334430	599.540770	1423.751830	24.937380	484.106870	1548.890010	196.396850	480.952450	1560.438600	-146.203690	520.301880	1501.134280	360.343050	527.179320	1508.130740	-324.246920	516.774900	1468.980960	464.103820	491.874730	1477.081180	-425.348910	673.289730	1460.348140	685.862980	613.305790	1467.988530	711.439510	622.711670	1445.156130	-641.888180	551.085270	1449.885500	-660.921880	599.443120	39.597950	276.559450	593.972600	49.003830	168.034470	585.345090	39.916630	-201.712390	605.841550	51.672600	-100.995120	630.555970	1652.817380	107.597160	638.788570	1651.874150	-31.768470	577.324340	1816.623170	36.246670	
264	4.383000	602.066960	1073.550050	157.628040	603.777650	1061.663330	-104.048850	404.920840	1079.356320	36.566850	539.582280	756.627200	224.341690	591.139830	682.411500	134.721500	519.973390	637.259460	226.616290	513.958010	767.973940	-167.960420	602.133420	719.288570	-112.195500	503.353330	658.899600	-160.608140	474.231750	553.786250	216.642610	468.024290	524.947810	98.007980	474.988530	528.830440	-150.514140	496.098420	519.242250	-36.939730	439.467990	469.006810	236.054030	512.919800	424.123720	184.021360	451.599760	383.460080	253.363620	467.300990	450.419130	-170.765050	516.092220	393.478580	-128.120100	444.564820	409.057770	-181.007460	437.426730	98.077100	255.928560	443.825260	103.555500	165.093190	442.854860	93.565060	-172.253280	464.984770	109.056820	-81.748310	366.611720	70.642070	210.271350	507.345280	80.455180	164.964890	509.389860	63.691230	272.920140	657.169070	50.652630	195.337630	371.638980	75.033200	-115.474410	544.812990	77.038730	-94.775080	523.397580	65.988950	-191.893400	654.579900	48.692840	-127.302540	599.561400	1423.843020	25.018410	483.969540	1548.934940	196.516270	480.948430	1560.407710	-146.152600	520.323790	1501.091550	360.425780	527.171570	1508.077030	-324.223940	516.933840	1468.685670	464.102940	491.833370	1476.994380	-425.224670	673.365050	1460.125370	685.833310	613.093990	1467.806640	711.489010	622.685300	1445.077640	-641.876890	551.006100	1449.826660	-660.892090	599.777950	39.573270	276.629490	593.997620	49.019580	168.053700	585.345090	39.916630	-201.712390	605.839050	51.680630	-100.994920	631.449890	1652.785160	106.495440	637.489140	1652.315670	-32.971290	577.068730	1816.771480	36.429070	
265	4.400000	602.089970	1073.554570	157.621400	603.685670	1061.642460	-103.996220	404.931640	1079.396480	36.543020	539.606870	756.638490	224.354080	591.158510	682.427980	134.690980	520.032530	637.312740	226.662950	513.918090	767.993650	-167.927110	602.133730	719.320310	-112.183940	503.264250	658.882450	-160.567410	474.268130	553.750920	216.638600	468.046110	524.920410	98.030320	475.028350	528.812560	-150.496990	496.269260	519.259400	-36.836410	439.476320	469.014500	236.083150	512.933720	424.117650	184.022990	451.616940	383.475250	253.376740	467.304750	450.430180	-170.753770	516.114810	393.474610	-128.085430	444.581360	409.033330	-180.982990	437.427460	98.083900	255.924060	443.782930	103.545410	165.091630	442.874300	93.577380	-172.246550	464.979100	109.031980	-81.761050	366.589050	70.649420	210.266940	507.298890	80.427850	164.965700	509.414580	63.677380	272.937290	657.174070	50.653480	195.342440	371.790560	74.977700	-115.393290	544.812990	77.038730	-94.775080	523.772220	66.141280	-191.781020	654.597720	48.693920	-127.289440	599.604250	1423.917970	25.075550	483.882930	1548.971190	196.594120	480.953130	1560.381590	-146.125370	520.384890	1501.058470	360.478700	527.172850	1508.040160	-324.204860	517.124940	1468.402100	464.068540	491.810520	1476.885500	-425.116060	673.405460	1459.878420	685.804260	612.858460	1467.621950	711.548030	622.652950	1444.989010	-641.877140	550.915650	1449.761960	-660.865480	600.030400	39.555100	276.682680	594.040280	49.037060	168.066070	585.345090	39.916630	-201.712390	605.851380	51.678480	-100.978860	632.202880	1652.731930	105.288590	636.234560	1652.709840	-34.101010	576.857180	1816.925420	36.635090	
266	4.417000	602.117250	1073.554080	157.613600	603.628780	1061.620000	-103.954640	404.929600	1079.407350	36.535820	539.635680	756.651670	224.368560	591.156490	682.426330	134.685900	520.100100	637.373780	226.715440	513.872620	768.009030	-167.892040	602.146480	719.367190	-112.164790	503.193790	658.870300	-160.540530	474.302920	553.712280	216.633590	468.075160	524.889100	98.058580	475.061340	528.795100	-150.478440	496.463930	519.286190	-36.709400	439.488560	469.025510	236.132870	512.936160	424.107180	184.018720	451.640930	383.497830	253.383590	467.301300	450.437230	-170.748260	516.156490	393.479060	-128.038650	444.633880	409.023160	-180.979170	437.426450	98.074500	255.930270	443.735530	103.544650	165.087710	442.916530	93.604190	-172.231900	464.971710	108.999560	-81.777660	366.579710	70.652450	210.265140	507.249080	80.389590	164.968870	509.410860	63.693540	272.937620	657.179380	50.654380	195.347560	371.850130	74.972600	-115.441470	544.812990	77.038730	-94.775080	524.221070	66.333150	-191.643390	654.598510	48.693150	-127.289190	599.674130	1423.975590	25.117000	483.848750	1548.988650	196.631090	480.972290	1560.371950	-146.141890	520.449710	1501.033810	360.529690	527.173770	1508.029540	-324.189510	517.278560	1468.193360	464.031280	491.795410	1476.783200	-425.047520	673.422060	1459.649540	685.778750	612.616270	1467.454350	711.628850	622.623840	1444.916750	-641.884460	550.825560	1449.704960	-660.837040	600.161680	39.545990	276.710910	594.056340	49.023570	168.070450	585.345090	39.916630	-201.712390	605.869690	51.676280	-100.954050	632.799260	1652.626100	104.000980	635.040340	1653.050660	-35.174450	576.686040	1817.077760	36.874640	
